<?xml version="1.0" encoding="utf-8"?>
<!-- Generator: Adobe Illustrator 22.1.0, SVG Export Plug-In . SVG Version: 6.00 Build 0)  -->
<svg version="1.1" id="Layer_1" xmlns="http://www.w3.org/2000/svg" xmlns:xlink="http://www.w3.org/1999/xlink" x="0px" y="0px"
	 viewBox="0 0 200 200" style="enable-background:new 0 0 200 200;" xml:space="preserve">
<polygon fill="#363636" points="100,0 102.1,60.1 110.5,0.5 106.3,60.5 120.8,2.2 110.4,61.4 130.9,4.9 114.3,62.7 140.7,8.6 118.2,64.4 150,13.4 
	121.8,66.5 158.8,19.1 125.2,68.9 166.9,25.7 128.3,71.7 174.3,33.1 131.1,74.8 180.9,41.2 133.5,78.2 186.6,50 135.6,81.8 
	191.4,59.3 137.3,85.7 195.1,69.1 138.6,89.6 197.8,79.2 139.5,93.7 199.5,89.5 139.9,97.9 200,100 139.9,102.1 199.5,110.5 
	139.5,106.3 197.8,120.8 138.6,110.4 195.1,130.9 137.3,114.3 191.4,140.7 135.6,118.2 186.6,150 133.5,121.8 180.9,158.8 
	131.1,125.2 174.3,166.9 128.3,128.3 166.9,174.3 125.2,131.1 158.8,180.9 121.8,133.5 150,186.6 118.2,135.6 140.7,191.4 
	114.3,137.3 130.9,195.1 110.4,138.6 120.8,197.8 106.3,139.5 110.5,199.5 102.1,139.9 100,200 97.9,139.9 89.5,199.5 93.7,139.5 
	79.2,197.8 89.6,138.6 69.1,195.1 85.7,137.3 59.3,191.4 81.8,135.6 50,186.6 78.2,133.5 41.2,180.9 74.8,131.1 33.1,174.3 
	71.7,128.3 25.7,166.9 68.9,125.2 19.1,158.8 66.5,121.8 13.4,150 64.4,118.2 8.6,140.7 62.7,114.3 4.9,130.9 61.4,110.4 2.2,120.8 
	60.5,106.3 0.5,110.5 60.1,102.1 0,100 60.1,97.9 0.5,89.5 60.5,93.7 2.2,79.2 61.4,89.6 4.9,69.1 62.7,85.7 8.6,59.3 64.4,81.8 
	13.4,50 66.5,78.2 19.1,41.2 68.9,74.8 25.7,33.1 71.7,71.7 33.1,25.7 74.8,68.9 41.2,19.1 78.2,66.5 50,13.4 81.8,64.4 59.3,8.6 
	85.7,62.7 69.1,4.9 89.6,61.4 79.2,2.2 93.7,60.5 89.5,0.5 97.9,60.1 "/>
</svg>
